<svg xmlns="http://www.w3.org/2000/svg" width="24" height="24" viewBox="0 0 24 24" fill="none">
  <path d="M18.22 21H5.78002C5.41457 21.0013 5.05248 20.9303 4.7146 20.7911C4.37671 20.6518 4.06972 20.4471 3.81131 20.1887C3.5529 19.9303 3.34818 19.6233 3.20894 19.2854C3.0697 18.9475 2.9987 18.5854 3.00002 18.22V14.67C3.00002 14.4048 3.10537 14.1504 3.29291 13.9629C3.48045 13.7754 3.7348 13.67 4.00002 13.67C4.26523 13.67 4.51959 13.7754 4.70712 13.9629C4.89466 14.1504 5.00002 14.4048 5.00002 14.67V18.22C4.99931 18.3224 5.01931 18.424 5.05884 18.5185C5.09836 18.613 5.15659 18.6986 5.23002 18.77C5.3011 18.8439 5.38658 18.9024 5.48118 18.942C5.57578 18.9816 5.67749 19.0013 5.78002 19H18.22C18.4261 18.9974 18.623 18.9144 18.7687 18.7687C18.9144 18.623 18.9974 18.4261 19 18.22V14.67C19 14.4048 19.1054 14.1504 19.2929 13.9629C19.4804 13.7754 19.7348 13.67 20 13.67C20.2652 13.67 20.5196 13.7754 20.7071 13.9629C20.8947 14.1504 21 14.4048 21 14.67V18.22C21.0013 18.5854 20.9303 18.9475 20.7911 19.2854C20.6519 19.6233 20.4471 19.9303 20.1887 20.1887C19.9303 20.4471 19.6233 20.6518 19.2854 20.7911C18.9476 20.9303 18.5855 21.0013 18.22 21ZM12 15.67C11.8795 15.6647 11.7609 15.6376 11.65 15.59C11.5203 15.5459 11.4034 15.4703 11.31 15.37L6.85002 10.93C6.75734 10.8366 6.68401 10.7257 6.63425 10.6039C6.58448 10.4821 6.55926 10.3516 6.56002 10.22C6.56112 9.95766 6.66527 9.70626 6.85002 9.52C7.03738 9.33375 7.29083 9.22921 7.55502 9.22921C7.8192 9.22921 8.07266 9.33375 8.26002 9.52L11 12.25V4C11 3.73478 11.1054 3.48043 11.2929 3.29289C11.4804 3.10536 11.7348 3 12 3C12.2652 3 12.5196 3.10536 12.7071 3.29289C12.8947 3.48043 13 3.73478 13 4V12.25L15.74 9.52C15.9274 9.33375 16.1808 9.22921 16.445 9.22921C16.7092 9.22921 16.9627 9.33375 17.15 9.52C17.3348 9.70626 17.4389 9.95766 17.44 10.22C17.4408 10.3516 17.4156 10.4821 17.3658 10.6039C17.316 10.7257 17.2427 10.8366 17.15 10.93L12.71 15.37C12.6158 15.4646 12.5036 15.5394 12.38 15.59C12.2657 15.6377 12.1438 15.6648 12.02 15.67H12Z" fill="#212121"/>
</svg>