<svg xmlns="http://www.w3.org/2000/svg" width="16" height="16" viewBox="0 0 16 16" fill="none">
  <path fill-rule="evenodd" clip-rule="evenodd" d="M2.76267 7.69734C3.1303 8.31726 3.56345 8.89592 4.05467 9.42334C5.02133 10.4533 6.35733 11.3933 8 11.3933C9.64267 11.3933 10.9787 10.4533 11.9453 9.42201C12.4365 8.8948 12.8697 8.31637 13.2373 7.69667C12.8697 7.07673 12.4366 6.49808 11.9453 5.97067C10.9787 4.94001 9.64267 4.00001 8 4.00001C6.35733 4.00001 5.02133 4.94001 4.05467 5.97134C3.56348 6.49854 3.13033 7.07763 2.76267 7.69734ZM14 7.69734L14.596 7.39867L14.5953 7.39667L14.5933 7.39201L14.5867 7.38C14.553 7.31323 14.5174 7.24743 14.48 7.18267C14.0434 6.41693 13.5194 5.70439 12.9187 5.05934C11.8387 3.90867 10.1747 2.66667 8 2.66667C5.82533 2.66667 4.16 3.90867 3.082 5.05934C2.48096 5.70432 1.95679 6.41686 1.52 7.18267C1.48337 7.24786 1.44781 7.31365 1.41333 7.38L1.40667 7.39201L1.40467 7.39667V7.39801C1.40467 7.39801 1.404 7.39867 2 7.69734L1.404 7.39867C1.35765 7.49129 1.33352 7.59344 1.33352 7.69701C1.33352 7.80057 1.35765 7.90272 1.404 7.99534V7.99601L1.40467 7.99734L1.40667 8.00134L1.41333 8.01467C1.44732 8.08107 1.48289 8.14664 1.52 8.21134C1.95679 8.97715 2.48096 9.68969 3.082 10.3347C4.16 11.4853 5.82467 12.7273 8 12.7273C10.1753 12.7273 11.84 11.4853 12.918 10.3347C13.519 9.68966 14.0432 8.97712 14.48 8.21134C14.5166 8.14614 14.5522 8.08036 14.5867 8.01401L14.5933 8.00134L14.5953 7.99734V7.99601C14.5953 7.99601 14.596 7.99534 14 7.69734ZM14 7.69734L14.596 7.99534C14.69 7.80734 14.6893 7.586 14.596 7.39867L14 7.69734Z" fill="#6C6685"/>
  <path fill-rule="evenodd" clip-rule="evenodd" d="M8 6.72667C7.74274 6.72667 7.49602 6.82887 7.31411 7.01078C7.1322 7.19269 7.03 7.43941 7.03 7.69667C7.03 7.95393 7.1322 8.20066 7.31411 8.38257C7.49602 8.56448 7.74274 8.66667 8 8.66667C8.25726 8.66667 8.50398 8.56448 8.68589 8.38257C8.8678 8.20066 8.97 7.95393 8.97 7.69667C8.97 7.43941 8.8678 7.19269 8.68589 7.01078C8.50398 6.82887 8.25726 6.72667 8 6.72667ZM5.69733 7.69667C5.69213 7.39094 5.74786 7.08724 5.86126 6.80327C5.97466 6.5193 6.14347 6.26075 6.35784 6.0427C6.5722 5.82465 6.82784 5.65147 7.10984 5.53326C7.39184 5.41504 7.69456 5.35416 8.00033 5.35416C8.30611 5.35416 8.60882 5.41504 8.89082 5.53326C9.17282 5.65147 9.42846 5.82465 9.64283 6.0427C9.8572 6.26075 10.026 6.5193 10.1394 6.80327C10.2528 7.08724 10.3085 7.39094 10.3033 7.69667C10.3033 8.30756 10.0607 8.89342 9.6287 9.32538C9.19674 9.75734 8.61088 10 8 10C7.38912 10 6.80326 9.75734 6.3713 9.32538C5.93934 8.89342 5.69733 8.30756 5.69733 7.69667Z" fill="#6C6685"/>
</svg>