<svg xmlns="http://www.w3.org/2000/svg" width="22" height="23" viewBox="0 0 22 23" fill="none">
  <path fill-rule="evenodd" clip-rule="evenodd" d="M20.7308 11.4259C20.7308 10.7061 20.6662 10.0139 20.5464 9.34937H10.9914V13.2764H16.4513C16.2162 14.5454 15.5014 15.6206 14.4269 16.3404V18.8876H17.7057C19.6241 17.1202 20.7308 14.5176 20.7308 11.4259Z" fill="#4285F4"/>
  <path fill-rule="evenodd" clip-rule="evenodd" d="M10.9913 21.3473C13.7305 21.3473 16.0271 20.4382 17.7057 18.8877L14.4268 16.3405C13.5184 16.9496 12.3563 17.3095 10.9913 17.3095C8.34908 17.3095 6.1124 15.5237 5.31453 13.1242H1.92535V15.7545C3.59458 19.0722 7.02546 21.3473 10.9913 21.3473Z" fill="#34A853"/>
  <path fill-rule="evenodd" clip-rule="evenodd" d="M5.31453 13.1243C5.11163 12.5152 4.99642 11.8644 4.99642 11.1954C4.99642 10.5263 5.11174 9.87568 5.31465 9.26657V6.63618H1.92524C1.21506 8.05089 0.845511 9.6123 0.846131 11.1954C0.846131 12.8335 1.23807 14.3841 1.92524 15.7546L5.31453 13.1243Z" fill="#FBBC05"/>
  <path fill-rule="evenodd" clip-rule="evenodd" d="M10.9914 5.08104C12.4809 5.08104 13.8181 5.59326 14.8696 6.59932L17.7794 3.68751C16.0225 2.04933 13.7259 1.04338 10.9914 1.04338C7.02546 1.04338 3.59457 3.31832 1.92523 6.6362L5.31452 9.26646C6.11239 6.86688 8.34896 5.08104 10.9914 5.08104Z" fill="#EA4335"/>
</svg>