<svg xmlns="http://www.w3.org/2000/svg" width="24" height="24" viewBox="0 0 24 24" fill="none">
  <path fill-rule="evenodd" clip-rule="evenodd" d="M6.34426 13.2845C5.76461 13.8641 5.43896 14.6503 5.43896 15.4701C5.43896 16.2898 5.76461 17.076 6.34426 17.6557C6.92392 18.2353 7.71012 18.561 8.52987 18.561C8.93578 18.561 9.3377 18.481 9.7127 18.3257C10.0877 18.1704 10.4284 17.9427 10.7154 17.6557L12.4511 15.92C12.8416 15.5295 13.4747 15.5295 13.8653 15.92C14.2558 16.3106 14.2558 16.9437 13.8653 17.3343L12.1296 19.0699C11.6569 19.5426 11.0957 19.9176 10.478 20.1734C9.86041 20.4293 9.19842 20.561 8.52987 20.561C7.17968 20.561 5.88479 20.0246 4.93006 19.0699C3.97533 18.1151 3.43896 16.8203 3.43896 15.4701C3.43896 14.1199 3.97533 12.825 4.93006 11.8702L6.66568 10.1346C7.05621 9.74411 7.68936 9.7441 8.0799 10.1346C8.47042 10.5251 8.47042 11.1583 8.0799 11.5488L6.34426 13.2845Z" fill="#212121"/>
  <path fill-rule="evenodd" clip-rule="evenodd" d="M17.6576 10.7131C18.2373 10.1334 18.5629 9.34725 18.5629 8.52749C18.5629 7.70773 18.2373 6.92154 17.6576 6.34189C17.078 5.76223 16.2918 5.43658 15.472 5.43658C15.0661 5.43658 14.6642 5.51653 14.2892 5.67186C13.9142 5.82719 13.5735 6.05487 13.2864 6.34188L11.5508 8.07751C11.1603 8.46803 10.5271 8.46803 10.1366 8.07751C9.74612 7.68699 9.74612 7.05382 10.1366 6.6633L11.8722 4.92767C12.345 4.45494 12.9062 4.07994 13.5238 3.8241C14.1415 3.56826 14.8035 3.43658 15.472 3.43658C16.8222 3.43658 18.1171 3.97294 19.0719 4.92767C20.0266 5.8824 20.5629 7.1773 20.5629 8.52749C20.5629 9.87768 20.0266 11.1726 19.0719 12.1273L17.3362 13.8629C16.9457 14.2534 16.3125 14.2534 15.922 13.8629C15.5315 13.4724 15.5315 12.8392 15.922 12.4487L17.6576 10.7131Z" fill="#212121"/>
  <path fill-rule="evenodd" clip-rule="evenodd" d="M8.9799 15.0199C8.58938 14.6294 8.58938 13.9962 8.9799 13.6057L13.6082 8.97735C13.9987 8.58682 14.6319 8.58682 15.0224 8.97735C15.413 9.36787 15.413 10.001 15.0224 10.3916L10.3941 15.0199C10.0036 15.4104 9.37042 15.4104 8.9799 15.0199Z" fill="#212121"/>
</svg>