<svg xmlns="http://www.w3.org/2000/svg" width="32" height="32" viewBox="0 0 32 32" fill="none">
  <path fill-rule="evenodd" clip-rule="evenodd" d="M23.6359 5.43163L30.4438 12.2317C32.5187 14.3044 32.5187 17.6956 30.4438 19.7683L19.7535 30.4453C18.4775 31.72 16.7018 32.211 15.0406 31.9177C17.5831 31.0056 19.8261 28.8967 21.4778 26.4082C23.5042 23.357 24.6462 19.7271 24.3671 17.0345C24.1444 14.887 23.3154 14.3203 21.4606 13.0524L21.3416 12.9709L15.9072 8.91963C15.2848 8.4938 14.5325 8.04071 13.7614 7.81276C13.2891 7.67367 12.8103 7.61842 12.3488 7.7027C14.4725 6.15873 19.4362 4.81546 23.6359 5.43163Z" fill="#ED4C90"/>
  <path fill-rule="evenodd" clip-rule="evenodd" d="M1.30413 12.4585L12.2075 1.55445C14.2831 -0.51815 17.6779 -0.51815 19.7534 1.55445L23.6351 5.432C22.7979 5.27974 21.9382 5.18998 21.0772 5.15858C17.4141 5.02453 13.7175 5.94478 11.564 7.58814C11.3628 7.74144 11.1845 7.8903 11.0266 8.03782C11.0045 8.05248 10.9821 8.06729 10.96 8.08299L10.9679 8.09351C9.83148 9.18335 9.77914 10.1948 9.67949 12.1412C9.67949 12.1412 9.5478 20.7126 9.74636 21.4871C9.8825 22.0168 10.1092 22.5017 10.4742 22.8728C10.3695 22.8354 10.2612 22.795 10.1491 22.7488C6.98216 21.2956 2.35479 16.6268 1.30413 12.4585Z" fill="#CC4880"/>
  <path d="M23.6494 17.2969C23.6328 17.1355 23.5643 16.7084 23.5511 16.645C23.4606 17.1646 23.1887 17.6228 22.8209 18.0239C22.2387 18.6578 21.905 18.9043 21.1873 19.2766L14.6917 22.6506C12.6979 23.6865 11.8068 24.1501 9.80556 23.3347C7.29643 22.3113 2.47791 17.3969 1.34242 12.4504C-0.516003 14.5366 -0.444967 17.761 1.55626 19.7602L12.1624 30.3542L12.2456 30.4372C12.5628 30.7541 12.9113 31.0204 13.2801 31.24C13.6883 31.483 14.5499 31.8189 15.0786 31.9095C17.7328 31.1121 19.5773 28.832 21.2906 26.251C23.2849 23.2487 23.9226 19.9306 23.6494 17.2969Z" fill="#C93E79"/>
  <g opacity="0.6">
    <path fill-rule="evenodd" clip-rule="evenodd" d="M16.053 8.72479L19.7492 11.4804C19.826 11.4793 19.9023 11.4744 19.9794 11.4744C24.5 11.4744 28.6559 13.2969 31.7492 16.2308C31.8113 14.8525 31.3225 13.454 30.2714 12.4039L23.5209 5.66099C22.8635 5.56872 22.1648 5.52191 21.4423 5.52191C18.1914 5.52191 15.0418 6.43076 13.2109 7.44654C13.4114 7.47246 13.6186 7.5169 13.8307 7.57925C14.697 7.83579 15.5093 8.35257 16.053 8.72479Z" fill="#AC3D6C"/>
  </g>
  <g opacity="0.6">
    <path fill-rule="evenodd" clip-rule="evenodd" d="M9.40141 15.1973C9.41283 13.7065 9.43121 12.4551 9.43626 12.1286C9.53265 10.2465 9.58751 9.17251 10.6462 8.07067L10.615 8.0292L10.8191 7.88463C10.8378 7.8713 10.8566 7.85857 10.8753 7.84627C11.0352 7.69801 11.2124 7.55019 11.4164 7.39481C13.4311 5.85736 16.8625 4.90245 20.3718 4.90245C20.6099 4.90245 20.8481 4.90674 21.0862 4.91534C21.7117 4.93815 22.3298 4.99132 22.9324 5.07367L19.5814 1.72638C18.6237 0.76999 17.3448 0.243286 15.9808 0.243286C14.6166 0.243286 13.3379 0.76999 12.38 1.72638L1.57533 12.5319C2.17622 14.7568 3.82941 17.1813 5.7384 19.1386C6.74872 17.6448 7.98876 16.3154 9.40141 15.1973Z" fill="#ED4C90"/>
  </g>
  <g opacity="0.6">
    <path d="M5.22516 19.9477C3.50391 17.9983 1.92072 15.511 1.22507 12.981C-0.248527 14.9813 -0.0627122 17.7985 1.72838 19.5881L4.16293 22.0197C4.46975 21.3033 4.82699 20.6123 5.22516 19.9477Z" fill="url(#paint0_linear_8004_1951)"/>
  </g>
  <defs>
    <linearGradient id="paint0_linear_8004_1951" x1="21.846" y1="24.2954" x2="4.80005" y2="18.2331" gradientUnits="userSpaceOnUse">
      <stop stop-color="#ED4C90"/>
      <stop offset="0.0311" stop-color="#681F3E"/>
      <stop offset="0.2535" stop-color="#7B3251"/>
      <stop offset="0.4843" stop-color="#922956"/>
      <stop offset="0.7268" stop-color="#B74073"/>
      <stop offset="1" stop-color="#ED4C90"/>
    </linearGradient>
  </defs>
</svg>