<svg xmlns="http://www.w3.org/2000/svg" width="16" height="16" viewBox="0 0 16 16" fill="none">
  <path fill-rule="evenodd" clip-rule="evenodd" d="M3.852 4.00001C3.71444 4.00001 3.58252 4.05465 3.48525 4.15192C3.38798 4.24919 3.33333 4.38111 3.33333 4.51867V12.3907L4.56533 11.158C4.6273 11.096 4.70089 11.0469 4.78188 11.0133C4.86287 10.9798 4.94968 10.9626 5.03733 10.9627H12.148C12.2854 10.9627 12.4173 10.9081 12.5145 10.811C12.6118 10.7139 12.6665 10.5821 12.6667 10.4447V4.51801C12.6665 4.38056 12.6118 4.24881 12.5145 4.15168C12.4173 4.05456 12.2854 4.00001 12.148 4.00001H3.852ZM2.54267 3.20934C2.88989 2.86199 3.36087 2.66679 3.852 2.66667H12.148C12.6392 2.66667 13.1102 2.86179 13.4576 3.20911C13.8049 3.55643 14 4.02749 14 4.51867V10.4447C13.9998 10.9357 13.8046 11.4066 13.4573 11.7538C13.11 12.101 12.6391 12.296 12.148 12.296H5.31333L3.138 14.4713C3.04477 14.5645 2.92599 14.628 2.79669 14.6537C2.66739 14.6794 2.53336 14.6662 2.41156 14.6158C2.28976 14.5653 2.18566 14.4799 2.1124 14.3703C2.03914 14.2607 2.00003 14.1318 2 14V4.51867C2 4.02734 2.19533 3.55667 2.54267 3.20934Z" fill="#6C6685"/>
</svg>