<svg xmlns="http://www.w3.org/2000/svg" width="20" height="20" viewBox="0 0 20 20" fill="none">
  <path fill-rule="evenodd" clip-rule="evenodd" d="M9.25917 4.16667C8.59041 4.16667 7.9282 4.29839 7.31035 4.55431C6.6925 4.81023 6.13111 5.18534 5.65823 5.65823C5.18534 6.13111 4.81023 6.6925 4.55431 7.31035C4.29839 7.9282 4.16667 8.59041 4.16667 9.25917C4.16667 9.92792 4.29839 10.5901 4.55431 11.208C4.81023 11.8258 5.18534 12.3872 5.65823 12.8601C6.13111 13.333 6.6925 13.7081 7.31035 13.964C7.9282 14.2199 8.59041 14.3517 9.25917 14.3517C10.6098 14.3517 11.9051 13.8151 12.8601 12.8601C13.8151 11.9051 14.3517 10.6098 14.3517 9.25917C14.3517 7.90855 13.8151 6.61325 12.8601 5.65823C11.9051 4.7032 10.6098 4.16667 9.25917 4.16667ZM2.5 9.25917C2.5 7.46652 3.21212 5.7473 4.47971 4.47971C5.7473 3.21212 7.46652 2.5 9.25917 2.5C11.0518 2.5 12.771 3.21212 14.0386 4.47971C15.3062 5.7473 16.0183 7.46652 16.0183 9.25917C16.0183 11.0518 15.3062 12.771 14.0386 14.0386C12.771 15.3062 11.0518 16.0183 9.25917 16.0183C7.46652 16.0183 5.7473 15.3062 4.47971 14.0386C3.21212 12.771 2.5 11.0518 2.5 9.25917Z" fill="#6C6685"/>
  <path fill-rule="evenodd" clip-rule="evenodd" d="M12.855 12.855C13.0113 12.6988 13.2232 12.611 13.4442 12.611C13.6651 12.611 13.8771 12.6988 14.0333 12.855L17.2558 16.0775C17.3354 16.1544 17.3989 16.2463 17.4426 16.348C17.4863 16.4497 17.5092 16.559 17.5102 16.6697C17.5112 16.7803 17.4901 16.8901 17.4482 16.9925C17.4063 17.0949 17.3444 17.1879 17.2662 17.2662C17.1879 17.3444 17.0949 17.4063 16.9925 17.4482C16.89 17.4901 16.7803 17.5112 16.6697 17.5102C16.559 17.5093 16.4497 17.4863 16.348 17.4426C16.2463 17.3989 16.1544 17.3354 16.0775 17.2558L12.855 14.0333C12.6988 13.8771 12.611 13.6651 12.611 13.4442C12.611 13.2232 12.6988 13.0113 12.855 12.855Z" fill="#6C6685"/>
</svg>