<svg xmlns="http://www.w3.org/2000/svg" width="16" height="16" viewBox="0 0 16 16" fill="none">
  <path fill-rule="evenodd" clip-rule="evenodd" d="M8 3.33333C7.38716 3.33333 6.78033 3.45404 6.21414 3.68856C5.64796 3.92308 5.13351 4.26683 4.70017 4.70017C4.26683 5.13351 3.92308 5.64796 3.68856 6.21414C3.45404 6.78033 3.33333 7.38716 3.33333 8C3.33333 8.61284 3.45404 9.21967 3.68856 9.78586C3.92308 10.352 4.26683 10.8665 4.70017 11.2998C5.13351 11.7332 5.64796 12.0769 6.21414 12.3114C6.78033 12.546 7.38716 12.6667 8 12.6667C9.23768 12.6667 10.4247 12.175 11.2998 11.2998C12.175 10.4247 12.6667 9.23768 12.6667 8C12.6667 6.76232 12.175 5.57534 11.2998 4.70017C10.4247 3.825 9.23768 3.33333 8 3.33333ZM2 8C2 7.21207 2.15519 6.43185 2.45672 5.7039C2.75825 4.97595 3.20021 4.31451 3.75736 3.75736C4.31451 3.20021 4.97595 2.75825 5.7039 2.45672C6.43185 2.15519 7.21207 2 8 2C8.78793 2 9.56815 2.15519 10.2961 2.45672C11.0241 2.75825 11.6855 3.20021 12.2426 3.75736C12.7998 4.31451 13.2417 4.97595 13.5433 5.7039C13.8448 6.43185 14 7.21207 14 8C14 9.5913 13.3679 11.1174 12.2426 12.2426C11.1174 13.3679 9.5913 14 8 14C6.4087 14 4.88258 13.3679 3.75736 12.2426C2.63214 11.1174 2 9.5913 2 8Z" fill="#6C6685"/>
  <path fill-rule="evenodd" clip-rule="evenodd" d="M8 9.68934C8.726 9.68934 9.362 9.30267 9.71333 8.722C9.80474 8.57065 9.95253 8.46182 10.1242 8.41943C10.2959 8.37705 10.4773 8.40459 10.6287 8.496C10.78 8.58742 10.8889 8.73521 10.9312 8.90686C10.9736 9.07852 10.9461 9.25999 10.8547 9.41134C10.5581 9.90318 10.1394 10.31 9.63919 10.5923C9.13901 10.8747 8.57435 11.0229 8 11.0227C7.42565 11.0229 6.86098 10.8747 6.36081 10.5923C5.86064 10.31 5.44193 9.90318 5.14533 9.41134C5.10007 9.3364 5.07001 9.25327 5.05687 9.16672C5.04374 9.08016 5.04777 8.99186 5.06876 8.90686C5.08975 8.82187 5.12727 8.74184 5.17918 8.67134C5.2311 8.60085 5.29639 8.54127 5.37133 8.496C5.44627 8.45074 5.5294 8.42068 5.61595 8.40755C5.70251 8.39441 5.79081 8.39845 5.87581 8.41943C6.04746 8.46182 6.19525 8.57065 6.28667 8.722C6.46457 9.01732 6.71584 9.2616 7.01606 9.4311C7.31628 9.6006 7.65524 9.68956 8 9.68934ZM5.73333 6.4C5.73333 6.22319 5.80357 6.05362 5.92859 5.9286C6.05362 5.80357 6.22319 5.73334 6.4 5.73334H6.40667C6.58348 5.73334 6.75305 5.80357 6.87807 5.9286C7.00309 6.05362 7.07333 6.22319 7.07333 6.4C7.07333 6.57682 7.00309 6.74638 6.87807 6.87141C6.75305 6.99643 6.58348 7.06667 6.40667 7.06667H6.4C6.22319 7.06667 6.05362 6.99643 5.92859 6.87141C5.80357 6.74638 5.73333 6.57682 5.73333 6.4ZM8.93333 6.4C8.93333 6.22319 9.00357 6.05362 9.12859 5.9286C9.25362 5.80357 9.42319 5.73334 9.6 5.73334H9.60667C9.78348 5.73334 9.95305 5.80357 10.0781 5.9286C10.2031 6.05362 10.2733 6.22319 10.2733 6.4C10.2733 6.57682 10.2031 6.74638 10.0781 6.87141C9.95305 6.99643 9.78348 7.06667 9.60667 7.06667H9.6C9.42319 7.06667 9.25362 6.99643 9.12859 6.87141C9.00357 6.74638 8.93333 6.57682 8.93333 6.4Z" fill="#6C6685"/>
</svg>