<svg xmlns="http://www.w3.org/2000/svg" width="18" height="20" viewBox="0 0 18 20" fill="none">
  <path fill-rule="evenodd" clip-rule="evenodd" d="M2.25 4.76562C2.10082 4.76562 1.95774 4.82818 1.85225 4.93953C1.74676 5.05088 1.6875 5.2019 1.6875 5.35938V14.8594C1.6875 15.0168 1.74676 15.1679 1.85225 15.2792C1.95774 15.3906 2.10082 15.4531 2.25 15.4531H11.25C11.3992 15.4531 11.5423 15.3906 11.6477 15.2792C11.7532 15.1679 11.8125 15.0168 11.8125 14.8594V5.35938C11.8125 5.2019 11.7532 5.05088 11.6477 4.93953C11.5423 4.82818 11.3992 4.76562 11.25 4.76562H2.25ZM0 5.35938C0 4.72949 0.237053 4.1254 0.65901 3.68C1.08097 3.2346 1.65326 2.98438 2.25 2.98438H11.25C11.8467 2.98438 12.419 3.2346 12.841 3.68C13.2629 4.1254 13.5 4.72949 13.5 5.35938V6.29275L15.9649 4.99244C16.1793 4.87929 16.4175 4.82587 16.657 4.83724C16.8964 4.84861 17.1291 4.9244 17.333 5.05742C17.5369 5.19044 17.7053 5.37626 17.822 5.59725C17.9387 5.81823 18 6.06705 18 6.32006V13.8987C18 14.1517 17.9387 14.4005 17.822 14.6215C17.7053 14.8425 17.5369 15.0283 17.333 15.1613C17.1291 15.2943 16.8964 15.3701 16.657 15.3815C16.4175 15.3929 16.1793 15.3395 15.9649 15.2263L13.5 13.926V14.8594C13.5 15.4893 13.2629 16.0934 12.841 16.5388C12.419 16.9842 11.8467 17.2344 11.25 17.2344H2.25C1.65326 17.2344 1.08097 16.9842 0.65901 16.5388C0.237053 16.0934 0 15.4893 0 14.8594V5.35938ZM13.5 11.9334L16.3125 13.4178V6.80219L13.5 8.28538V11.9334Z" fill="#FF4393"/>
</svg>